<?xml version="1.0" encoding="utf-8"?>
<!-- Generator: Adobe Illustrator 27.0.1, SVG Export Plug-In . SVG Version: 6.00 Build 0)  -->
<svg version="1.1" id="Layer_1" xmlns="http://www.w3.org/2000/svg" xmlns:xlink="http://www.w3.org/1999/xlink" x="0px" y="0px"
	 viewBox="0 0 48.2 48.2" style="enable-background:new 0 0 48.2 48.2;" xml:space="preserve">
<style type="text/css">
	.st0{fill:#55CDFF;}
</style>
<path class="st0" d="M7.1,35.1h34v-14h-34C7.1,21.1,7.1,35.1,7.1,35.1z M34.1,30.6c0.7,0,1.3-0.2,1.8-0.7s0.7-1.1,0.7-1.8
	c0-0.7-0.2-1.3-0.7-1.8s-1.1-0.7-1.8-0.7s-1.3,0.2-1.8,0.7s-0.7,1.1-0.7,1.8c0,0.7,0.2,1.3,0.7,1.8S33.4,30.6,34.1,30.6z M44.1,18.1
	h-4.2l-5-5H13.4l-5,5H4.1l7.1-7.1c0.3-0.3,0.6-0.5,1-0.6c0.4-0.2,0.8-0.2,1.2-0.2h21.5c0.4,0,0.8,0.1,1.2,0.2s0.7,0.4,1,0.6
	L44.1,18.1z M7.1,38.1c-0.8,0-1.5-0.3-2.1-0.9s-0.9-1.3-0.9-2.1v-17h40v17c0,0.8-0.3,1.5-0.9,2.1s-1.3,0.9-2.1,0.9H7.1z"/>
</svg>
