<?xml version="1.0" encoding="utf-8"?>
<!-- Generator: Adobe Illustrator 27.0.1, SVG Export Plug-In . SVG Version: 6.00 Build 0)  -->
<svg version="1.1" id="Layer_1" xmlns="http://www.w3.org/2000/svg" xmlns:xlink="http://www.w3.org/1999/xlink" x="0px" y="0px"
	 viewBox="0 0 48.2 48.2" style="enable-background:new 0 0 48.2 48.2;" xml:space="preserve">
<style type="text/css">
	.st0{fill:#55CDFF;}
</style>
<path class="st0" d="M19.9,40l13.9-16.8h-9l1.8-14.3L14,27.2h7.7L19.9,40z M18.3,30.2h-7.2c-0.6,0-1-0.3-1.3-0.8s-0.2-1,0.1-1.5
	L26.8,3.5c0.3-0.4,0.6-0.6,1-0.8s0.8-0.1,1.2,0c0.4,0.2,0.7,0.4,0.9,0.8c0.2,0.4,0.3,0.8,0.2,1.2l-1.9,15.4h8.8
	c0.6,0,1.1,0.3,1.4,0.9s0.2,1.1-0.2,1.6L19.7,44.9c-0.3,0.3-0.6,0.5-1,0.6c-0.4,0.1-0.8,0.1-1.2-0.1c-0.4-0.2-0.7-0.4-0.9-0.8
	s-0.3-0.8-0.2-1.2L18.3,30.2z"/>
</svg>
