<?xml version="1.0" encoding="utf-8"?>
<!-- Generator: Adobe Illustrator 27.0.1, SVG Export Plug-In . SVG Version: 6.00 Build 0)  -->
<svg version="1.1" id="Layer_1" xmlns="http://www.w3.org/2000/svg" xmlns:xlink="http://www.w3.org/1999/xlink" x="0px" y="0px"
	 viewBox="0 0 48.2 48.2" style="enable-background:new 0 0 48.2 48.2;" xml:space="preserve">
<style type="text/css">
	.st0{fill:#55CDFF;}
</style>
<path class="st0" d="M11.1,45.1c-0.8,0-1.5-0.3-2.1-0.9c-0.6-0.6-0.9-1.3-0.9-2.1V20.4c0-0.8,0.3-1.5,0.9-2.1
	c0.6-0.6,1.3-0.9,2.1-0.9h19.5v-4.8c0-1.8-0.6-3.3-1.9-4.6c-1.3-1.3-2.8-1.9-4.6-1.9c-1.6,0-3,0.5-4.2,1.5s-1.9,2.2-2.2,3.8
	c-0.1,0.4-0.2,0.7-0.5,0.9c-0.3,0.2-0.6,0.4-1,0.4c-0.4,0-0.8-0.2-1.1-0.5s-0.4-0.7-0.3-1.1c0.4-2.2,1.4-4.1,3.2-5.6
	s3.8-2.3,6.2-2.3c2.6,0,4.9,0.9,6.7,2.8c1.9,1.9,2.8,4.1,2.8,6.7v4.8h3.5c0.8,0,1.5,0.3,2.1,0.9s0.9,1.3,0.9,2.1v21.7
	c0,0.8-0.3,1.5-0.9,2.1s-1.3,0.9-2.1,0.9H11.1z M11.1,42.1h26V20.4h-26V42.1z M24.1,35.1c1.1,0,2-0.4,2.7-1.1s1.1-1.6,1.1-2.6
	c0-1-0.4-1.9-1.1-2.7s-1.7-1.2-2.7-1.2c-1.1,0-2,0.4-2.7,1.2s-1.1,1.7-1.1,2.8c0,1,0.4,1.9,1.1,2.6S23.1,35.1,24.1,35.1z M11.1,42.1
	V20.4V42.1z"/>
</svg>
