<svg width="76" height="37" viewBox="0 0 76 37" fill="none" xmlns="http://www.w3.org/2000/svg">
<g clip-path="url(#clip0_461_332)">
<path d="M0 0.00210571C25.3328 0.00157928 50.6661 0.00579071 75.9995 0C76 12.3332 76.0005 24.6668 75.999 37C71.0684 36.1961 66.1154 35.5228 61.1442 35.0301C43.2063 33.2271 25.0624 33.5293 7.19255 35.9287C4.78914 36.2441 2.39405 36.6204 0 36.9984C0 24.6663 0.000520106 12.3342 0 0.00210571ZM2.23698 2.2668C2.23802 12.9633 2.23698 23.6603 2.23698 34.3568C25.895 30.6918 50.105 30.6887 73.7625 34.3579C73.7641 23.6603 73.763 12.9628 73.763 2.26522C49.9208 2.26891 26.0786 2.26627 2.23698 2.2668Z" fill="#55CDFF"/>
<path d="M18.5966 10.6791C20.147 9.1514 22.3221 8.33755 24.4764 8.37176C25.9472 8.3665 27.4488 8.59971 28.7714 9.27933C29.4533 9.62361 30.0764 10.0753 30.6578 10.5717C29.9261 11.4661 29.188 12.3547 28.4646 13.2554C28.0292 12.9254 27.6059 12.5732 27.1242 12.3121C26.1574 11.7599 25.0183 11.5688 23.9193 11.6498C22.5743 11.7662 21.3438 12.5869 20.6151 13.7234C19.6758 15.1511 19.5296 17.0299 20.0986 18.6287C20.443 19.5999 21.1004 20.4617 21.9663 21.0118C22.8276 21.5719 23.8736 21.7967 24.8888 21.7351C25.9301 21.6946 26.99 21.4072 27.8378 20.777C27.8295 20.019 27.8378 19.2604 27.8337 18.5023C26.6671 18.5055 25.4999 18.5013 24.3333 18.5045C24.3307 17.4874 24.3396 16.4703 24.3292 15.4538C26.6239 15.4391 28.9191 15.4591 31.2138 15.4438C31.2279 17.7659 31.2123 20.0885 31.2216 22.4105C29.6421 23.7908 27.6485 24.6963 25.5665 24.9021C23.5339 25.128 21.3911 24.7495 19.6586 23.615C18.2705 22.7196 17.198 21.3461 16.6368 19.7816C16.0829 18.2423 15.9737 16.5461 16.2847 14.9416C16.6087 13.3286 17.4191 11.8162 18.5966 10.6791Z" fill="#55CDFF"/>
<path d="M8.4668 8.64758C9.63027 8.65022 10.7938 8.64548 11.9572 8.65022C11.9546 13.9924 11.9572 19.3351 11.9562 24.6778C10.7932 24.6773 9.63027 24.6757 8.46732 24.6784C8.4668 19.3351 8.46732 13.9914 8.4668 8.64758Z" fill="#55CDFF"/>
<path d="M35.4609 8.64819C37.5892 8.64872 39.7175 8.64819 41.8458 8.64872C43.7806 8.6703 45.7398 9.2778 47.2538 10.5196C48.5775 11.5909 49.5163 13.1318 49.8741 14.8085C50.3074 16.8331 50.025 19.0409 48.9509 20.8218C48.0985 22.2574 46.7597 23.375 45.2296 24.002C44.1576 24.4426 43.0014 24.6742 41.8442 24.6774C39.717 24.6774 37.5892 24.6764 35.4615 24.6779C35.4615 19.3347 35.4625 13.9914 35.4609 8.64819ZM38.9613 11.832C38.9561 15.0527 38.9618 18.2734 38.9581 21.4946C39.6259 21.4936 40.2943 21.4941 40.9621 21.4941C41.4999 21.4899 42.0424 21.5199 42.575 21.4199C43.6188 21.2556 44.6247 20.7476 45.3149 19.928C45.9182 19.2257 46.2687 18.325 46.3743 17.4064C46.4726 16.4735 46.3946 15.507 46.0373 14.6353C45.6696 13.7087 44.982 12.9159 44.1134 12.4406C43.3291 11.9984 42.4231 11.8315 41.5327 11.831C40.6755 11.8331 39.8184 11.831 38.9613 11.832Z" fill="#55CDFF"/>
<path d="M54.0586 8.65816C56.2092 8.635 58.362 8.65501 60.5131 8.64816C61.104 8.65658 61.6964 8.62342 62.2851 8.68501C63.331 8.78345 64.391 9.09247 65.2279 9.75735C65.9555 10.3254 66.4662 11.1734 66.6072 12.0952C66.7091 12.967 66.6618 13.8956 66.2379 14.6816C65.8775 15.3864 65.2565 15.9097 64.5887 16.3024C65.4786 16.6414 66.3586 17.1416 66.9125 17.948C67.429 18.6929 67.5798 19.6342 67.5293 20.527C67.5085 21.4346 67.1804 22.3448 66.5661 23.0139C65.9456 23.6998 65.0927 24.1215 64.2173 24.3663C63.4855 24.5658 62.7288 24.6684 61.9715 24.6758C59.3356 24.6779 56.6997 24.6784 54.0638 24.6758C54.0596 19.3362 54.0695 13.9972 54.0586 8.65816ZM57.4653 11.7483C57.4689 12.8749 57.4622 14.0019 57.4684 15.129C58.623 15.1216 59.7777 15.1306 60.9323 15.1243C61.4561 15.0959 61.9985 15.0206 62.4614 14.7531C62.8271 14.5436 63.1048 14.1683 63.1594 13.7419C63.2364 13.2613 63.1547 12.7217 62.8078 12.3621C62.3907 11.9273 61.7686 11.7883 61.1919 11.7536C59.9498 11.743 58.7073 11.7536 57.4653 11.7483ZM57.4648 18.0728C57.4663 19.2431 57.4679 20.4144 57.4637 21.5851C58.5679 21.5957 59.6726 21.5862 60.7773 21.5893C61.3286 21.5825 61.8857 21.6204 62.4318 21.5209C62.9103 21.443 63.4039 21.2609 63.7268 20.8787C64.0524 20.496 64.1206 19.9516 64.0389 19.4689C63.9739 19.0593 63.7196 18.6914 63.368 18.4803C62.891 18.1865 62.32 18.0939 61.7697 18.0749C60.3347 18.0707 58.8997 18.0749 57.4648 18.0728Z" fill="#55CDFF"/>
</g>
<defs>
<clipPath id="clip0_461_332">
<rect width="76" height="37" fill="white"/>
</clipPath>
</defs>
</svg>
