<?xml version="1.0" encoding="utf-8"?>
<!-- Generator: Adobe Illustrator 27.0.1, SVG Export Plug-In . SVG Version: 6.00 Build 0)  -->
<svg version="1.1" id="Layer_1" xmlns="http://www.w3.org/2000/svg" xmlns:xlink="http://www.w3.org/1999/xlink" x="0px" y="0px"
	 viewBox="0 0 1920 1080" style="enable-background:new 0 0 1920 1080;" xml:space="preserve">
<style type="text/css">
	
		.st0{clip-path:url(#SVGID_00000129925497924549864910000003607792345984750488_);fill:none;stroke:url(#SVGID_00000145028052551131607690000005800216045029208721_);stroke-width:2;stroke-miterlimit:10;}
</style>
<g>
	<defs>
		<rect id="SVGID_1_" width="1920" height="1080"/>
	</defs>
	<clipPath id="SVGID_00000111896482946513217320000002379477323402306195_">
		<use xlink:href="#SVGID_1_"  style="overflow:visible;"/>
	</clipPath>
	
		<linearGradient id="SVGID_00000097484057010409419540000000959026230638170798_" gradientUnits="userSpaceOnUse" x1="1543.1198" y1="194.488" x2="1885.9722" y2="-27.9784" gradientTransform="matrix(0.9336 -0.3584 -0.3584 -0.9336 205.8511 1656.5675)">
		<stop  offset="0" style="stop-color:#EE285B"/>
		<stop  offset="0.44" style="stop-color:#F26335"/>
		<stop  offset="0.82" style="stop-color:#F99D1C"/>
		<stop  offset="1" style="stop-color:#FCB415"/>
	</linearGradient>
	
		<path style="clip-path:url(#SVGID_00000111896482946513217320000002379477323402306195_);fill:none;stroke:url(#SVGID_00000097484057010409419540000000959026230638170798_);stroke-width:2;stroke-miterlimit:10;" d="
		M1951.92,917.82c-15.98-30.14-35.5-58.04-56.99-84.58c-11.71-14.47-24.39-28.04-39.97-38.66c-19.2-13.08-39.96-17.09-62.54-10.9
		c-11.94,3.28-21.8,10.21-31.44,17.58c-21.08,16.09-44.15,28.09-70.21,33.59c-12.77,2.65-25.83,3.93-38.8,5.47
		c-32.53,3.83-55.6,23.54-63.81,55.26c-2.06,7.9-3.21,16.17-3.87,24.31c-1.98,23.82,0.34,47.53,3.18,71.21
		c3.82,31.61,9.51,62.8,20.83,92.71c1.08,2.79,2,5.63,3.23,8.36c4.77,10.5,9.98,20.77,18.32,28.95c11,10.77,24.79,11.23,35.53,0.23
		c5.84-5.98,11.11-13.1,14.69-20.63c6-12.79,10.67-26.26,15.52-39.57c3.87-10.61,9.89-19.5,19.66-25.45
		c5.69-3.43,11.48-7.07,17.62-9.49c34.03-13.36,68.15-26.46,102.34-39.4c19.96-7.6,39.14-6.43,57.5,5.55
		c7.46,4.84,15.75,8.6,23.86,12.36c10.07,4.67,20.56,8.29,31.95,8.36c14.72,0.1,24.55-8.65,25.74-23.27
		c0.32-3.8,0.14-7.64-0.31-11.44c-2.76-21.76-11.83-41.4-21.95-60.51L1951.92,917.82z M1684.61,977.64
		c-17.15,6.7-36.75-2.01-43.5-19.34c-6.74-17.45,1.63-36.72,18.94-43.49c17.26-6.74,36.69,1.86,43.52,19.22
		C1710.29,951.3,1701.81,970.92,1684.61,977.64z M1806.23,838.37c8.49-3.26,18,1.03,21.29,9.55c3.31,8.57-0.84,17.99-9.39,21.27
		c-8.55,3.28-17.94-0.88-21.27-9.5C1793.58,851.17,1797.79,841.61,1806.23,838.37z M1797.61,915.95c-8.39,3.22-18.14-1.1-21.45-9.49
		c-3.27-8.47,0.91-17.96,9.46-21.24c8.55-3.28,18.06,0.89,21.33,9.36C1810.22,903.04,1806,912.73,1797.61,915.95z M1844.27,936.68
		c-8.49,3.26-18.03-0.96-21.32-9.48c-3.31-8.57,0.8-18.09,9.3-21.35c8.44-3.24,18.05,1.01,21.34,9.53
		c3.31,8.57-0.82,18.04-9.3,21.35L1844.27,936.68z M1864.98,890.09c-8.42,3.29-18.1-0.99-21.36-9.58
		c-3.31-8.57,0.91-17.96,9.53-21.2c8.6-3.3,18.02,1.08,21.23,9.69C1877.47,877.47,1873.3,886.83,1864.98,890.09z"/>
</g>
</svg>
