<?xml version="1.0" encoding="utf-8"?>
<!-- Generator: Adobe Illustrator 27.0.1, SVG Export Plug-In . SVG Version: 6.00 Build 0)  -->
<svg version="1.1" id="Layer_1" xmlns="http://www.w3.org/2000/svg" xmlns:xlink="http://www.w3.org/1999/xlink" x="0px" y="0px"
	 viewBox="0 0 920.1 657" style="enable-background:new 0 0 920.1 657;" xml:space="preserve">
<style type="text/css">
	.st0{fill:url(#SVGID_1_);}
</style>
<linearGradient id="SVGID_1_" gradientUnits="userSpaceOnUse" x1="80.621" y1="523.308" x2="882.0117" y2="2.8789" gradientTransform="matrix(1 0 0 -1 0 656.5395)">
	<stop  offset="0" style="stop-color:#FF1658"/>
	<stop  offset="0.4357" style="stop-color:#FF612E"/>
	<stop  offset="0.8182" style="stop-color:#FF9D0D"/>
	<stop  offset="1" style="stop-color:#FFB400"/>
</linearGradient>
<path class="st0" d="M914.6,440.2c-9.8-81.7-29.3-161.2-54.5-239.4C846.3,158,829.7,116.5,804,79.3c-31.7-46-74.8-73-130.8-78.6
	c-29.6-3-57.8,4.1-85.7,12.4C526.3,31.1,464.2,38.2,401,27.9c-30.9-5-61.3-13.5-91.7-21.2C232.8-12.6,164,11.7,118.1,76
	c-11.4,16-21.2,33.5-29.8,51.3c-25.1,51.9-40.4,107.2-54.5,162.9C15,364.6,0.8,439.7,0.1,516.8c0,7.2-0.3,14.4,0.1,21.5
	c1.6,27.7,4.4,55.3,16,81C31.6,653,62.1,666,95.7,650.5c18.3-8.5,36.3-19.9,50.8-33.7c24.6-23.6,46.6-49.9,69.1-75.6
	c17.9-20.5,39.1-35.3,66.1-40.2c15.8-2.9,31.8-6,47.7-6.1c87.9-0.6,175.8-0.6,263.7-0.3c51.4,0.2,93.3,19.4,124.1,62.1
	C729.7,574,745,589.5,760,605c18.6,19.3,39,36.4,64.4,46.4c33,12.9,62.5,1.7,77.9-30.2c4-8.2,7-17.1,9.2-26
	C924.1,543.8,920.8,491.9,914.6,440.2z M263.4,343.9c-44.3,0.2-80.7-36.3-80.8-81c-0.1-45,35.5-81.2,80.2-81.5
	c44.5-0.3,80.7,35.9,80.9,80.8C343.8,306.9,307.7,343.7,263.4,343.9z M656.8,135.6c21.9,0.1,39.5,17.9,39.5,39.9
	c0,22.1-17.5,39.7-39.5,39.7c-22,0-39.5-17.5-39.4-39.7C617.3,153.4,635,135.5,656.8,135.6z M570.2,302.6
	c-21.5,0.1-39.7-18.1-39.8-39.8c-0.1-21.9,17.6-39.6,39.6-39.6c22.1,0,39.8,17.6,39.7,39.4C609.7,284.5,591.8,302.5,570.2,302.6z
	 M656.9,389.6c-21.8,0.1-39.5-17.7-39.6-39.7c-0.1-22.1,17.5-40,39.3-40c21.7-0.1,39.6,17.9,39.6,39.8
	C696.3,371.7,678.8,389.5,656.9,389.6z M743.7,302.6c-21.8,0.2-39.7-17.9-39.7-39.9c0-22.1,17.6-39.6,39.8-39.5
	c22.1,0.1,39.5,18,39.2,40.2C782.6,285,765.1,302.5,743.7,302.6z"/>
</svg>
