<svg width="385" height="275" viewBox="0 0 385 275" fill="none" xmlns="http://www.w3.org/2000/svg">
<path d="M381.591 183.815C377.471 149.948 369.249 116.912 358.698 84.4286C352.948 66.7206 345.979 49.5106 335.241 34.0161C322 14.9246 304.061 3.74642 280.759 1.42224C268.442 0.204817 256.745 3.13771 245.103 6.56864C219.659 14.0392 193.816 16.9721 167.515 12.7664C154.642 10.6636 141.988 7.17735 129.335 3.96777C97.5897 -4.11151 68.9888 6.01526 49.9627 32.688C45.2061 39.3285 41.172 46.633 37.6373 53.9929C27.2537 75.5193 20.9223 98.4844 15.0905 121.615C7.33335 152.494 1.46268 183.649 1.30701 215.634C1.3132 218.622 1.15298 221.61 1.32557 224.599C2.01502 236.109 3.20357 247.564 8.05135 258.189C14.4592 272.189 27.1727 277.557 41.1375 271.138C48.7296 267.651 56.208 262.892 62.2422 257.137C72.4281 247.342 81.6134 236.441 90.91 225.761C98.3252 217.239 107.132 211.096 118.388 209.049C124.931 207.887 131.64 206.559 138.241 206.503C174.794 206.227 211.348 206.227 247.902 206.393C269.258 206.448 286.747 214.417 299.597 232.18C304.826 239.374 311.218 245.848 317.444 252.268C325.171 260.236 333.672 267.375 344.275 271.525C357.987 276.893 370.292 272.244 376.643 259.019C378.3 255.588 379.513 251.935 380.448 248.228C385.674 226.923 384.242 205.341 381.646 183.87L381.591 183.815ZM110.598 143.861C92.1829 143.972 77.0086 128.809 76.9146 110.216C76.8759 91.5118 91.5996 76.5153 110.181 76.4047C128.708 76.294 143.771 91.2905 143.92 109.939C144.014 128.477 129.069 143.751 110.598 143.861ZM274.052 57.4239C283.149 57.4239 290.486 64.8391 290.505 73.9698C290.524 83.1558 283.273 90.4604 274.121 90.4604C264.968 90.4604 257.687 83.2112 257.668 73.9698C257.649 64.8391 265.011 57.4239 274.052 57.4239ZM238.197 126.762C229.211 126.762 221.651 119.236 221.577 110.216C221.558 101.141 228.865 93.7807 238.017 93.7807C247.17 93.7807 254.562 101.085 254.581 110.161C254.6 119.236 247.183 126.762 238.197 126.762ZM274.326 162.842C265.229 162.842 257.837 155.482 257.818 146.351C257.799 137.165 265.05 129.75 274.147 129.75C283.188 129.75 290.636 137.165 290.655 146.296C290.674 155.482 283.423 162.842 274.326 162.897L274.326 162.842ZM310.361 126.762C301.32 126.817 293.816 119.347 293.853 110.161C293.834 100.975 301.141 93.7253 310.349 93.7807C319.556 93.7807 326.783 101.251 326.691 110.437C326.543 119.457 319.292 126.707 310.361 126.762Z" stroke="url(#paint0_linear_505_324)" stroke-width="2" stroke-miterlimit="10"/>
<defs>
<linearGradient id="paint0_linear_505_324" x1="29.7596" y1="53.4396" x2="372.612" y2="275.906" gradientUnits="userSpaceOnUse">
<stop stop-color="#FF1658"/>
<stop offset="0.44" stop-color="#FF612E"/>
<stop offset="0.82" stop-color="#FF9D0D"/>
<stop offset="1" stop-color="#FFB400"/>
</linearGradient>
</defs>
</svg>
