<?xml version="1.0" encoding="utf-8"?>
<!-- Generator: Adobe Illustrator 27.0.1, SVG Export Plug-In . SVG Version: 6.00 Build 0)  -->
<svg version="1.1" id="Layer_1" xmlns="http://www.w3.org/2000/svg" xmlns:xlink="http://www.w3.org/1999/xlink" x="0px" y="0px"
	 viewBox="0 0 1920 1080" style="enable-background:new 0 0 1920 1080;" xml:space="preserve">
<style type="text/css">
	
		.st0{clip-path:url(#SVGID_00000057864346079849843480000007965184697398689408_);fill:none;stroke:url(#SVGID_00000028327174180685682170000004228514880838144958_);stroke-width:2;stroke-miterlimit:10;}
</style>
<g>
	<defs>
		<rect id="SVGID_1_" width="1920" height="1080"/>
	</defs>
	<clipPath id="SVGID_00000109715579801700798990000017454919800678486718_">
		<use xlink:href="#SVGID_1_"  style="overflow:visible;"/>
	</clipPath>
	
		<linearGradient id="SVGID_00000035532179290456898840000017769536665971336580_" gradientUnits="userSpaceOnUse" x1="-130.3569" y1="1096.6578" x2="98.8863" y2="947.9089" gradientTransform="matrix(0.9659 0.2588 0.2588 -0.9659 -193.2564 1225.3064)">
		<stop  offset="0" style="stop-color:#EE285B"/>
		<stop  offset="0.44" style="stop-color:#F26335"/>
		<stop  offset="0.82" style="stop-color:#F99D1C"/>
		<stop  offset="1" style="stop-color:#FCB415"/>
	</linearGradient>
	
		<path style="clip-path:url(#SVGID_00000109715579801700798990000017454919800678486718_);fill:none;stroke:url(#SVGID_00000035532179290456898840000017769536665971336580_);stroke-width:2;stroke-miterlimit:10;" d="
		M168.95,277.35c3.19-22.53,3.6-45.23,2.41-67.98c-0.65-12.4-2.17-24.69-6.41-36.53c-5.23-14.59-14.86-24.88-29.47-30.4
		c-7.72-2.91-15.77-3.04-23.86-2.84c-17.68,0.42-34.84-2.15-51.06-9.4c-7.93-3.58-15.48-8.01-23.08-12.26
		c-19.06-10.69-39.23-9.1-56.09,4.8c-4.21,3.46-8.07,7.47-11.62,11.6c-10.41,12.08-18.45,25.78-26.2,39.67
		c-10.33,18.55-19.49,37.61-25.11,58.19c-0.51,1.93-1.13,3.82-1.54,5.78c-1.54,7.53-2.75,15.12-1.47,22.8
		c1.71,10.13,8.98,15.78,19.08,14.05c5.49-0.94,11.13-2.71,16.01-5.38c8.25-4.55,16.05-9.99,23.89-15.26
		c6.25-4.21,12.98-6.65,20.59-6.02c4.42,0.38,8.97,0.68,13.23,1.79c23.6,6.13,47.15,12.44,70.67,18.86
		c13.75,3.72,23.64,11.87,28.85,25.54c2.13,5.54,5.13,10.81,8.03,16.02c3.6,6.47,7.85,12.53,13.96,17.04
		c7.91,5.83,16.64,4.95,23.01-2.47c1.66-1.92,3.07-4.07,4.31-6.3c7.04-12.82,9.85-26.97,11.88-41.26L168.95,277.35z M1.26,204.83
		c-11.88-3.11-19.04-15.5-15.89-27.49c3.2-12.06,15.28-19.18,27.27-16.04c11.95,3.13,19.07,15.39,15.95,27.43
		C25.45,200.69,13.18,207.95,1.26,204.83z M121.49,177.36c5.86,1.57,9.31,7.61,7.74,13.5c-1.57,5.92-7.51,9.38-13.4,7.8
		c-5.9-1.58-9.34-7.51-7.75-13.46C109.64,179.3,115.66,175.8,121.49,177.36z M86.42,215.84c-5.79-1.55-9.36-7.7-7.85-13.53
		c1.55-5.85,7.53-9.33,13.43-7.75c5.9,1.58,9.4,7.56,7.84,13.41C98.28,213.82,92.21,217.39,86.42,215.84z M103.47,245.32
		c-5.86-1.57-9.35-7.59-7.79-13.47c1.57-5.92,7.52-9.45,13.39-7.88c5.82,1.56,9.34,7.62,7.78,13.51c-1.57,5.92-7.52,9.41-13.39,7.88
		L103.47,245.32z M132.91,228.3c-5.83-1.53-9.38-7.63-7.77-13.54c1.57-5.92,7.53-9.33,13.46-7.71c5.93,1.59,9.3,7.65,7.65,13.55
		C144.6,226.38,138.67,229.8,132.91,228.3z"/>
</g>
</svg>
