<?xml version="1.0" encoding="utf-8"?>
<!-- Generator: Adobe Illustrator 27.0.1, SVG Export Plug-In . SVG Version: 6.00 Build 0)  -->
<svg version="1.1" id="Layer_1" xmlns="http://www.w3.org/2000/svg" xmlns:xlink="http://www.w3.org/1999/xlink" x="0px" y="0px"
	 viewBox="0 0 728.3 552" style="enable-background:new 0 0 728.3 552;" xml:space="preserve">
<style type="text/css">
	.st0{fill:#FFFFFF;}
</style>
<g id="_图层_2">
	<g id="Discord_Logos">
		<g id="Discord_Logo_-_Large_-_White">
			<path class="st0" d="M617,46.2C569.1,24.3,518.6,8.8,466.7,0c-7.1,12.7-13.5,25.8-19.2,39.1c-55.3-8.3-111.5-8.3-166.8,0
				C275,25.8,268.6,12.7,261.5,0C209.5,8.9,159,24.4,111.1,46.3C16,187-9.8,324.2,3.1,459.5l0,0c55.7,41.1,118,72.4,184.3,92.5
				c14.9-20.1,28.1-41.4,39.5-63.6c-21.6-8-42.3-18-62.2-29.7c5.2-3.8,10.3-7.7,15.2-11.5c116.7,54.9,251.8,54.9,368.5,0
				c5,4.1,10.1,8,15.2,11.5c-19.8,11.7-40.7,21.7-62.3,29.7c11.3,22.3,24.5,43.6,39.5,63.6c66.3-20,128.7-51.3,184.4-92.5l0,0
				C740.4,302.7,699.4,166.8,617,46.2L617,46.2z M243.2,376.3c-35.9,0-65.6-32.6-65.6-72.7s28.6-73,65.5-73s66.3,32.9,65.6,73
				S279.8,376.3,243.2,376.3z M485.2,376.3c-36,0-65.5-32.6-65.5-72.7s28.6-73,65.5-73s66.1,32.9,65.5,73S521.8,376.3,485.2,376.3
				L485.2,376.3z"/>
		</g>
	</g>
</g>
</svg>
