<?xml version="1.0" encoding="UTF-8"?>
<svg id="Layer_1" data-name="Layer 1" xmlns="http://www.w3.org/2000/svg" viewBox="0 0 576 576">
  <defs>
    <style>
      .cls-1 {
        fill: #fff;
      }

      .cls-2 {
        fill: #ff4500;
      }
    </style>
  </defs>
  <circle class="cls-2" cx="288" cy="288" r="288"/>
  <path class="cls-1" d="M479.95,288c0-23.2-18.8-42-42-42-11.32,0-21.58,4.5-29.13,11.79-28.71-20.72-68.26-34.1-112.32-35.63l19.13-90.01,62.51,13.29c.76,15.89,13.78,28.57,29.86,28.57s30-13.43,30-30-13.43-30-30-30c-11.79,0-21.88,6.86-26.79,16.74l-69.8-14.84c-1.94-.42-3.98-.04-5.64,1.05-1.67,1.08-2.84,2.79-3.25,4.73l-21.37,100.44c-44.7,1.24-84.89,14.64-113.97,35.59-7.55-7.24-17.77-11.71-29.05-11.71-23.2,0-42,18.8-42,42,0,17.07,10.2,31.72,24.81,38.3-.65,4.17-1,8.41-1,12.7,0,64.62,75.22,117,168,117s168-52.38,168-117c0-4.27-.35-8.47-.99-12.62,14.71-6.53,24.99-21.24,24.99-38.38Zm-287.95,30c0-16.54,13.46-30,30.01-30s29.99,13.46,29.99,30-13.45,29.99-29.99,29.99-30.01-13.46-30.01-29.99Zm167.28,79.27c-20.48,20.45-59.71,22.04-71.25,22.04s-50.78-1.59-71.23-22.04c-3.04-3.04-3.04-7.96,0-10.99,3.03-3.03,7.96-3.04,10.99,0,12.9,12.91,40.51,17.49,60.23,17.49s47.33-4.58,60.26-17.49c3.04-3.03,7.96-3.03,10.99,0,3.03,3.04,3.03,7.96,0,10.99Zm-5.28-49.27c-16.54,0-30-13.46-30-30s13.46-30.01,30-30.01,30,13.46,30,30.01-13.46,30-30,30Z"/>
</svg>