<?xml version="1.0" encoding="UTF-8"?>
<svg id="Layer_1" data-name="Layer 1" xmlns="http://www.w3.org/2000/svg" viewBox="0 0 708.74 576">
  <defs>
    <style>
      .cls-1 {
        fill: #1d9bf0;
      }
    </style>
  </defs>
  <path class="cls-1" d="M222.89,576c267.46,0,413.72-221.58,413.72-413.72,0-6.3-.13-12.56-.42-18.8,28.39-20.52,53.07-46.13,72.54-75.29-26.06,11.57-54.09,19.37-83.51,22.89,30.02-18,53.07-46.48,63.94-80.44-28.1,16.66-59.21,28.77-92.33,35.29C570.31,17.68,532.52,0,490.71,0c-80.31,0-145.43,65.12-145.43,145.4,0,11.41,1.28,22.51,3.77,33.15C228.2,172.48,121.04,114.61,49.33,26.63c-12.5,21.48-19.69,46.45-19.69,73.08,0,50.45,25.67,94.98,64.71,121.04-23.85-.73-46.26-7.29-65.86-18.19-.03,.61-.03,1.22-.03,1.85,0,70.43,50.13,129.22,116.66,142.56-12.21,3.32-25.06,5.11-38.33,5.11-9.37,0-18.48-.93-27.33-2.62,18.51,57.77,72.19,99.81,135.84,100.99-49.78,39-112.47,62.24-180.6,62.24-11.73,0-23.31-.67-34.69-2.01,64.35,41.24,140.76,65.31,222.89,65.31"/>
</svg>